<mxfile host="app.diagrams.net" modified="2023-12-22T14:24:26.848Z" agent="Mozilla/5.0 (Windows NT 10.0; Win64; x64) AppleWebKit/537.36 (KHTML, like Gecko) Chrome/120.0.0.0 Safari/537.36" version="22.1.11" etag="4LPzzdt4IqJG4FFQc0GT" type="github">
  <diagram name="Page-1" id="4dxO5rnk3AXR4g8jBu_Q">
    <mxGraphModel>
      <root>
        <mxCell id="0" />
        <mxCell id="1" parent="0" />
      </root>
    </mxGraphModel>
  </diagram>
</mxfile>
